<svg xmlns="http://www.w3.org/2000/svg" width="1918" height="543" viewBox="0 0 1918 543">
  <defs>
    <style>
      .cls-1 {
        fill: #605ca8;
        fill-rule: evenodd;
      }
    </style>
  </defs>
  <path id="kokoro_copiar" data-name="kokoro copiar" class="cls-1" d="M-0.012,530.794h103.89L123.27,412.923l40.171-35.584,66.49,153.455H346.98l1.385-7.413L246.553,304.689,392.692,174.956l1.385-7.413h-130.9L154.437,266.881h-6.926L191.145,0H87.255Zm436.65-357.955a204.371,204.371,0,0,0-65.7,46.361q-27.671,29.313-42.88,69.357t-15.216,86.789a187.276,187.276,0,0,0,11.412,65.648A154.829,154.829,0,0,0,357.1,494.4a153.026,153.026,0,0,0,51.871,35.606q30.426,12.969,67.778,12.981,45.647,0,83.686-17.061a204.218,204.218,0,0,0,65.7-46.362q27.654-29.3,42.88-69.728,15.206-40.421,15.216-87.159A184.345,184.345,0,0,0,672.825,257.4a155.9,155.9,0,0,0-32.852-53.037A153.568,153.568,0,0,0,588.1,168.759q-30.441-12.969-67.778-12.981Q474.678,155.778,436.638,172.839Zm0,244.789q-20.067-21.505-20.056-54.892a106.374,106.374,0,0,1,7.607-40.8,110.389,110.389,0,0,1,20.4-32.639,91.372,91.372,0,0,1,29.74-21.883,84.3,84.3,0,0,1,35.618-7.788q31.122,0,50.833,21.512T580.5,336.032a106.546,106.546,0,0,1-7.608,40.8,110.518,110.518,0,0,1-20.4,32.638,91.424,91.424,0,0,1-29.739,21.883,84.327,84.327,0,0,1-35.619,7.789Q456.685,439.14,436.638,417.628ZM641.049,531.121h103.8l19.375-117.944,40.135-35.605,66.429,153.549H987.729l1.384-7.418L887.393,304.877,1033.4,175.064l1.38-7.418H904l-108.64,99.4h-6.92L832.035,0h-103.8ZM1079.82,172.839a204.527,204.527,0,0,0-65.75,46.361q-27.695,29.313-42.915,69.357t-15.227,86.789a187.166,187.166,0,0,0,11.42,65.648A154.747,154.747,0,0,0,1000.23,494.4a153.081,153.081,0,0,0,51.91,35.606q30.45,12.969,67.83,12.981,45.675,0,83.75-17.061a204.363,204.363,0,0,0,65.75-46.362q27.675-29.3,42.91-69.728t15.23-87.159a184.3,184.3,0,0,0-11.42-65.278,155.794,155.794,0,0,0-32.88-53.037,153.6,153.6,0,0,0-51.91-35.606q-30.465-12.969-67.83-12.981Q1117.9,155.778,1079.82,172.839Zm0,244.789q-20.085-21.505-20.07-54.892a106.356,106.356,0,0,1,7.61-40.8,110.6,110.6,0,0,1,20.42-32.639,91.428,91.428,0,0,1,29.76-21.883,84.463,84.463,0,0,1,35.65-7.788q31.14,0,50.87,21.512t19.73,54.892a106.323,106.323,0,0,1-7.62,40.8,110.475,110.475,0,0,1-20.41,32.638,91.491,91.491,0,0,1-29.77,21.883,84.4,84.4,0,0,1-35.64,7.789Q1099.885,439.14,1079.82,417.628Zm230.49,113.493h103.82l26.99-166.9q7.605-46.732,32.53-75.662t64.37-28.929c10.61,0,21.48,7.507,21.48,7.507a257.1,257.1,0,0,1,30.96-47.141,194.427,194.427,0,0,1,40.74-36.666c-5.54-4.01-8.58-12.38-31.92-22.659-8.4-3.68-19.04-4.891-31.49-4.891q-35.31,0-59.53,17.061a189.817,189.817,0,0,0-42.22,40.8h-6.92l7.61-45.991h-96.9Zm359.9-358.282a204.527,204.527,0,0,0-65.75,46.361q-27.69,29.313-42.91,69.357-15.24,40.058-15.23,86.789a187.234,187.234,0,0,0,11.42,65.648,154.728,154.728,0,0,0,32.88,53.409,153.081,153.081,0,0,0,51.91,35.606q30.45,12.969,67.83,12.981,45.675,0,83.75-17.061a204.363,204.363,0,0,0,65.75-46.362q27.675-29.3,42.91-69.728T1918,322.68a184.3,184.3,0,0,0-11.42-65.278,155.794,155.794,0,0,0-32.88-53.037,153.6,153.6,0,0,0-51.91-35.606q-30.465-12.969-67.83-12.981Q1708.285,155.778,1670.21,172.839Zm0,244.789q-20.085-21.505-20.07-54.892a106.356,106.356,0,0,1,7.61-40.8,110.6,110.6,0,0,1,20.42-32.639,91.534,91.534,0,0,1,29.76-21.883,84.463,84.463,0,0,1,35.65-7.788q31.14,0,50.87,21.512t19.73,54.892a106.509,106.509,0,0,1-7.61,40.8,110.707,110.707,0,0,1-20.42,32.638,91.491,91.491,0,0,1-29.77,21.883,84.4,84.4,0,0,1-35.64,7.789Q1690.275,439.14,1670.21,417.628Z"/>
</svg>
